<?xml version="1.0" encoding="utf-8"?>
<!-- Generator: Adobe Illustrator 19.2.1, SVG Export Plug-In . SVG Version: 6.00 Build 0)  -->
<svg version="1.1" id="layer" xmlns="http://www.w3.org/2000/svg" xmlns:xlink="http://www.w3.org/1999/xlink" x="0px" y="0px"
	 viewBox="0 0 652 652" style="enable-background:new 0 0 652 652;" xml:space="preserve">
<style type="text/css">
	.st0{fill:#2aa1fa;}
</style>
<path class="st0" d="M241,241.4v35.6c0,11.9,4.9,17.5,12.4,17.5c8,0,12.7-5.5,12.7-17.5v-35.6h11.1v34.8c0,18.8-9.6,27.2-24.2,27.2
	c-14,0-23.1-7.9-23.1-27.1v-34.9"/>
<path class="st0" d="M289.3,271.4c0-5.1-0.2-9.3-0.4-13.1h9.7l0.6,6.6h0.3c1.9-3.4,6.7-7.6,13.9-7.6c7.6,0,15.5,5,15.5,18.9v26.2
	h-11v-24.9c0-6.3-2.3-11.1-8.3-11.1c-4.4,0-7.4,3.1-8.6,6.5c-0.3,0.9-0.5,2.3-0.5,3.5v25.9h-11.1"/>
<path class="st0" d="M340.6,258.3h11v44.1h-11V258.3z M346,251.5c-3.9,0-6.4-2.8-6.4-6.4c0-3.6,2.6-6.3,6.5-6.3
	c3.9,0,6.5,2.7,6.5,6.3C352.7,248.7,350.1,251.5,346,251.5L346,251.5z"/>
<path class="st0" d="M370.5,258.3l7.1,22.4c1.2,3.9,2.2,7.4,3,11h0.3c0.8-3.6,1.8-7.1,3-11l6.9-22.4h11.6l-16.7,44.1h-10.9
	l-16.2-44.1"/>
<path class="st0" d="M415.6,275.6c0.5-4.5,3.3-10.7,10.1-10.7c7.4,0,9.2,6.7,9.1,10.7 M444.8,283.4c0.2-1,0.4-2.7,0.4-4.8
	c0-9.7-4.6-21.4-18.8-21.4c-14,0-21.4,11.5-21.4,23.7c0,13.5,8.3,22.3,22.5,22.3c6.3,0,11.5-1.2,15.3-2.8l-1.6-7.7
	c-3.3,1.2-7,2-12.1,2c-7.1,0-13.2-3.5-13.5-11.5L444.8,283.4z"/>
<path class="st0" d="M454.2,272.5c0-5.9-0.1-10.2-0.4-14.2h9.6l0.4,8.4h0.3c2.2-6.2,7.2-9.4,12-9.4c1.1,0,1.7,0,2.6,0.2V268
	c-1-0.2-2-0.3-3.3-0.3c-5.3,0-8.9,3.4-9.9,8.4c-0.2,1-0.3,2.2-0.3,3.4v22.8h-11.1"/>
<path class="st0" d="M485.5,292.1c2.4,1.5,7.2,3.2,11.1,3.2c4.9,0,7-2,7-4.9c0-3-1.8-4.5-7.2-6.4c-8.5-3-12.1-7.6-12.1-12.9
	c0-7.7,6.4-13.8,16.6-13.8c4.8,0,9,1.2,11.6,2.6l-2.2,7.8c-1.8-1.1-5.4-2.5-9.2-2.5c-3.9,0-6.1,2-6.1,4.7c0,2.8,2.1,4.1,7.6,6.2
	c8,2.8,11.6,6.9,11.7,13.4c0,8-6.2,13.8-17.7,13.8c-5.3,0-10.1-1.3-13.3-3.1"/>
<path class="st0" d="M523.5,258.3h11v44.1h-11V258.3z M528.9,251.5c-3.9,0-6.4-2.8-6.4-6.4c0-3.6,2.6-6.3,6.5-6.3
	c3.9,0,6.5,2.7,6.5,6.3C535.5,248.7,533,251.5,528.9,251.5L528.9,251.5z"/>
<path class="st0" d="M560.9,247v11.3h10.5v8.3h-10.5V286c0,5.4,1.4,8.1,5.7,8.1c2,0,3-0.1,4.3-0.5l0.2,8.5c-1.7,0.6-4.6,1.1-8,1.1
	c-4.1,0-7.4-1.4-9.5-3.6c-2.4-2.5-3.4-6.6-3.4-12.4v-20.7h-6.2v-8.3h6.2v-8.2"/>
<path class="st0" d="M589,258.3l7.9,23.6c0.9,2.7,1.8,6.1,2.5,8.5h0.3c0.7-2.5,1.5-5.8,2.3-8.6l6.8-23.5h11.8l-10.9,30.1
	c-6,16.4-10,23.7-15.2,28.3c-4.3,3.8-8.8,5.3-11.6,5.6l-2.5-9.4c1.9-0.5,4.2-1.5,6.4-3c2.1-1.4,4.5-4,6.1-7c0.4-0.8,0.7-1.4,0.7-1.9
	c0-0.5-0.1-1.1-0.6-2.2l-16-40.5"/>
<path class="st0" d="M248.9,383.2c-6.6,0-10.8-6.4-10.8-14.9c0-7.4,3.2-15,10.9-15c7.6,0,10.7,7.9,10.7,14.8
	C259.7,377,255.3,383.2,248.9,383.2 M248.8,391.2c11.1,0,22.4-7.3,22.4-23.5c0-13.4-8.7-22.6-21.7-22.6c-13.2,0-22.6,8.9-22.6,23.4
	C226.9,382.7,236.4,391.2,248.8,391.2L248.8,391.2z"/>
<path class="st0" d="M281.5,390.3v-35.8h-5.9v-8.3h5.9v-1.9c0-5.7,1.5-11.4,5.3-15.1c3.2-3.1,7.6-4.3,11.4-4.3c2.9,0,5.3,0.5,7,1.1
	l-0.8,8.6c-1.2-0.4-2.7-0.8-4.7-0.8c-5.5,0-7.3,4.6-7.3,10v2.3h9.5v8.3h-9.5v35.8"/>
<path class="st0" d="M342.3,390.3l-19.6-61h12.1L343,357c2.3,7.7,4.3,14.8,5.9,22.2h0.2c1.6-7.2,3.8-14.6,6.1-22l8.8-27.9h11.8
	l-20.9,61"/>
<path class="st0" d="M382.5,346.2h11.1v44.1h-11.1V346.2z M387.9,339.4c-3.8,0-6.4-2.8-6.4-6.4c0-3.6,2.6-6.3,6.5-6.3
	c3.9,0,6.4,2.7,6.5,6.3C394.6,336.6,392.1,339.4,387.9,339.4L387.9,339.4z"/>
<path class="st0" d="M437.6,388.9c-2.3,1.1-6.8,2.3-12.3,2.3c-13.7,0-22.5-8.9-22.5-22.5c0-13.2,8.9-23.4,24.3-23.4
	c4.1,0,8.1,0.9,10.7,2l-2,8.4c-1.8-0.9-4.4-1.7-8.3-1.7c-8.4,0-13.4,6.2-13.4,14.3c0,9,5.9,14.2,13.4,14.2c3.8,0,6.5-0.8,8.7-1.7"/>
<path class="st0" d="M459.8,334.9v11.3h10.5v8.3h-10.5v19.4c0,5.4,1.4,8.1,5.7,8.1c2,0,3-0.1,4.3-0.5l0.2,8.5
	c-1.7,0.6-4.6,1.2-8,1.2c-4.1,0-7.4-1.4-9.5-3.6c-2.4-2.5-3.4-6.6-3.4-12.4v-20.7h-6.2v-8.3h6.2V338"/>
<path class="st0" d="M497.4,383.2c-6.6,0-10.8-6.4-10.8-14.9c0-7.4,3.2-15,10.9-15c7.6,0,10.7,7.9,10.7,14.8
	C508.2,377,503.8,383.2,497.4,383.2 M497.3,391.2c11.1,0,22.4-7.3,22.4-23.5c0-13.4-8.7-22.6-21.7-22.6c-13.2,0-22.6,8.9-22.6,23.4
	C475.3,382.7,484.9,391.2,497.3,391.2L497.3,391.2z"/>
<path class="st0" d="M528.8,360.4c0-5.9-0.1-10.2-0.4-14.2h9.6l0.4,8.4h0.3c2.2-6.2,7.2-9.4,12-9.4c1.1,0,1.7,0,2.6,0.2v10.5
	c-1-0.2-2-0.3-3.3-0.3c-5.3,0-8.9,3.4-9.9,8.4c-0.2,1-0.3,2.2-0.3,3.4v22.9h-11.1"/>
<path class="st0" d="M560.8,346.2h11v44.1h-11V346.2z M566.1,339.4c-3.9,0-6.4-2.8-6.4-6.4c0-3.6,2.6-6.3,6.5-6.3
	c3.9,0,6.5,2.7,6.5,6.3C572.8,336.6,570.3,339.4,566.1,339.4L566.1,339.4z"/>
<path class="st0" d="M606.8,374.8c0,0.8-0.1,1.7-0.3,2.4c-1.1,3.2-4.2,6.1-8.6,6.1c-3.5,0-6.3-2-6.3-6.3c0-6.7,7.5-8.4,15.3-8.3
	 M617.6,363.8c0-9.7-4-18.6-18-18.6c-6.9,0-12.5,1.9-15.8,3.9l2.2,7.2c3-1.9,7.5-3.3,11.7-3.3c7.7,0,8.9,4.8,8.9,7.7v0.7
	c-16.1-0.1-25.9,5.6-25.9,16.7c0,6.7,4.9,13.1,13.8,13.1c5.7,0,10.2-2.4,12.9-5.9h0.3l0.8,4.9h10c-0.5-2.7-0.7-6.6-0.7-10.6V363.8z"
	/>
<path class="st0" d="M156.3,312.9h1c-0.3-0.4-0.7-0.7-1-1"/>
<path class="st0" d="M54.9,311.8c-0.3,0.3-0.7,0.7-1,1.1h1"/>
<path class="st0" d="M187.9,215.2H20.5v78.2c0,10.9,0,21.8,0,32.7v2.8c0,0.3,0,0.7,0,1c0,4.4,0.4,8.7,1,12.9
	c0.2,1.3,0.4,2.5,0.6,3.8c0.6,3.4,1.5,6.7,2.5,9.9c0.3,1,0.6,2,0.9,2.9c0.4,1.3,0.9,2.5,1.4,3.7c0.8,2.2,1.7,4.3,2.7,6.3
	c0.6,1.3,1.2,2.5,1.9,3.7c0.5,0.9,1,1.9,1.5,2.8c0.7,1.3,1.4,2.5,2.2,3.8c2.1,3.5,4.5,6.7,6.9,9.9c0.9,1.1,1.8,2.2,2.7,3.3
	c0.1,0.1,0.2,0.3,0.4,0.4c0.9,1.1,1.8,2.1,2.7,3.1c4.5,4.8,9.2,9.1,14.1,12.8c0.2,0.2,0.4,0.3,0.6,0.5c1.5,1.2,3.1,2.2,4.6,3.3
	c0.2,0.2,0.5,0.3,0.7,0.4c5.6,3.8,11.3,6.8,16.8,9.1c3.4,1.4,6.7,2.5,9.9,3.3c3.9,1,7.6,1.5,11,1.5c3.3,0,7-0.5,10.9-1.5
	c3.1-0.8,6.4-1.9,9.8-3.3c5.5-2.3,11.1-5.3,16.7-9.1c0.2-0.2,0.5-0.3,0.7-0.4c1.5-1.1,3.1-2.2,4.6-3.3c0.2-0.2,0.4-0.3,0.6-0.5
	c4.9-3.7,9.6-8,14-12.8c0.9-1,1.8-2,2.7-3.1c0.1-0.1,0.3-0.3,0.4-0.4c0.9-1.1,1.8-2.2,2.7-3.3c2.4-3.1,4.7-6.4,6.9-9.9
	c0.8-1.2,1.5-2.5,2.2-3.8c0.5-0.9,1-1.8,1.5-2.8c0.6-1.2,1.3-2.5,1.8-3.7c1-2.1,1.9-4.2,2.7-6.3c0.5-1.2,0.9-2.5,1.4-3.7
	c0.4-1.3,0.8-2.6,1.2-4c0.8-2.9,1.6-5.8,2.1-8.9c0.2-1.2,0.4-2.5,0.6-3.8c0.6-4.2,1-8.4,1-12.9c0-0.3,0-0.7,0-1v-2.8
	c0-10.9,0-21.8,0-32.7v-78.2 M25.2,310.6v-1.4h27.9c-0.9,1.1-2.2,2.4-3.8,3.7H25.2V310.6z M165.2,329.3c-0.1,1.2-0.1,2.4-0.2,3.7
	c-0.2,4.9-0.5,10.7-0.8,16.4c-0.1,1.2-0.1,2.5-0.2,3.7c-0.3,6.1-0.6,12-0.8,16.4c-0.1,1.4-0.1,2.6-0.2,3.7c-0.1,2.2-0.2,3.7-0.2,4.1
	c-6.3,0.9-36.4,4.7-49.9-4.1c-1.4-0.9-2.8-2-3.8-3.2c-0.1-0.2-0.2-0.3-0.4-0.5c-1.8-2.5-2.4-5.3-2.4-5.3s1-1.9,2.9-2.9
	c3.7-2.4,11.8-4.7,26.3,5c0.2,0.1,2.8,2,6.6,3.2c3.1,1,7,1.4,11,0c0.4-0.1,0.7-0.3,1.1-0.4l0.9-0.4l0.3-15.6l0.1-3.7l0.3-16.4
	l0.1-3.7l0.3-16.4l0-1c0.3,0.3,0.7,0.7,1,1c2,2.1,4.8,4.5,8.4,6.2C165.7,319.6,165.5,323.6,165.2,329.3 M116.3,378.7
	c-1.7,3-5.2,4.8-10.7,4.8c0,0-0.1,0-0.1,0v0c-5.5,0-9-1.8-10.7-4.8c3.4-1.6,6.2-3.5,8.3-5.5H103c1-1,1.9-2,2.6-3.2
	c0.7,1.2,1.6,2.2,2.6,3.2H108C110.1,375.2,112.9,377.1,116.3,378.7 M46,329.3c-0.3-5.7-0.5-9.7-0.5-10.2c3.6-1.7,6.4-4.1,8.4-6.2
	c0.3-0.4,0.7-0.7,1-1l0,1l0.3,16.4l0.1,3.7l0.3,16.4l0.1,3.7l0.3,15.6l0.9,0.4c0.4,0.2,0.7,0.3,1.1,0.4c4,1.4,7.9,1,11,0
	c3.8-1.2,6.4-3.1,6.7-3.3c14.3-9.7,22.5-7.4,26.2-5c2,1.1,3,3,3,3s-0.7,2.8-2.5,5.3c-0.1,0.2-0.2,0.4-0.4,0.5
	c-1,1.3-2.3,2.3-3.8,3.2c-13.5,8.8-43.6,5-49.9,4.1c0-0.4-0.1-1.8-0.2-4.1c-0.1-1.1-0.1-2.3-0.2-3.7c-0.2-4.4-0.5-10.3-0.8-16.4
	c-0.1-1.2-0.1-2.5-0.2-3.7c-0.3-5.7-0.5-11.4-0.8-16.4C46.1,331.7,46.1,330.5,46,329.3 M58,309.6c5.4,2,10.3,1,13.8-0.5
	c3.2-1.3,5.3-3,5.8-3.5c16.5-10.3,25-0.6,26.5,1.2v2.2c0,14.7,0,29.3,0,44v5.9c-4.3-3.1-13.7-6.5-30.3,4.7
	c-0.1,0.1-7.5,5.4-14.8,2.9c0-0.6-0.1-6.1-0.3-13.4c0-1.2,0-2.4-0.1-3.7c-0.1-5.1-0.2-10.8-0.3-16.4c0-1.3-0.1-2.5-0.1-3.7
	c-0.1-6.4-0.2-12.3-0.3-16.4C58,311.6,58,310.5,58,309.6 M107.2,359v-5.9c0-14.7,0-29.3,0-44v-2.4c1.7-2.2,10.3-11.1,26.4-1.1
	c0.5,0.4,2.6,2.1,5.8,3.5c3.6,1.5,8.5,2.5,13.8,0.5c0,0.9,0,2-0.1,3.3c-0.1,4.1-0.2,10-0.3,16.4c0,1.2,0,2.5-0.1,3.7
	c-0.1,5.5-0.2,11.3-0.3,16.4c0,1.3,0,2.5-0.1,3.7c-0.1,7.3-0.2,12.7-0.2,13.4c-7.2,2.6-14.6-2.8-14.7-2.8
	C121,352.6,111.6,355.9,107.2,359 M25.3,333c0-1-0.1-2-0.1-3c0-0.2,0-0.5,0-0.7h17.6L43,333H25.3z M28.5,353.1
	c-0.3-1.2-0.7-2.5-0.9-3.7h16.3l0.2,3.7H28.5z M36.7,373.3c-0.7-1.2-1.3-2.5-2-3.7h10.1l0.2,3.7H36.7z M135.4,413.1
	c-0.3,0.2-0.5,0.3-0.8,0.4H76.5c-0.3-0.2-0.5-0.3-0.8-0.4c-1.8-1-3.5-2.1-5.3-3.3h70.2C138.9,410.9,137.1,412,135.4,413.1
	 M160.1,393c-0.1,0.1-0.3,0.3-0.4,0.4H51.3c-0.1-0.1-0.3-0.3-0.4-0.4c-1-1.1-2-2.2-2.9-3.3h115C162,390.8,161.1,391.9,160.1,393
	 M174.2,373.3h-8l0.2-3.7h9.7C175.5,370.8,174.9,372,174.2,373.3 M182.3,353.1h-15.1l0.2-3.7h15.9
	C183,350.7,182.7,351.9,182.3,353.1 M185.6,330c0,1,0,2-0.1,3h-17.3l0.2-3.7h17.3C185.6,329.5,185.6,329.8,185.6,330 M185.6,310.6
	v2.3h-23.7c-1.5-1.3-2.8-2.6-3.8-3.7h27.5V310.6z M185.6,289.9H25.2v-70h160.4V289.9z"/>
<path class="st0" d="M84.7,265.7c-2.8,0.2-5.8,0.3-10.2-1.2c-19.4,0.9-28-6.1-28.9-11.8c-0.6-3.5,1.7-6.2,5.5-6.9
	c1.6-0.3,2.2,2.3,0.4,2.6c-2.5,0.4-3.7,1.9-3.4,3.9c0.6,3.8,7.5,10,24.4,9.7c0,0,0,0,0,0c4.9-0.2,10.3-2.5,10.3-2.5s-7.8-1.6-11-3.9
	c-0.1-0.1,6.8-5,7.5-7c-6.9,0.6-13.5,0.5-19.3-0.5c-3.3-1.7-6.1-4.1-8-6.7c-0.3-9.7-5.4-10.8-8.5-10.8c-3.1,0-6.8,3.9-10.1,5.7
	c2.1,2.3,6.2,4,6.2,9.7c-0.2,14.2,6.7,18,10.7,18.8c0.2,6.1-1.3,11-3.7,15.4c3.9,1.2,7.5-2.5,8.8-4c2,2.5,4.1,4,8.8,5.1
	c-2-2.3-3.6-9.1-3.4-14.2c3.6,1.9,11.7,10.1,15.3,15.4c0.2-1.7,0-6.3-0.5-10.4C78.4,271.3,81.3,269.7,84.7,265.7 M43.7,236.4
	c-0.1,0.1-0.7,0.9-1.7,1c-0.5,0-1.2-0.1-2-0.9l-0.4-0.4l0.3-0.5c0-0.1,0.4-0.8,1.3-1c0.7-0.2,1.6,0.1,2.4,0.7l0.7,0.5L43.7,236.4z"
	/>
<path class="st0" d="M133,265.7c-2.8,0.2-5.8,0.3-10.2-1.2c-19.4,0.9-27.9-6.1-28.9-11.8c-0.6-3.5,1.7-6.2,5.5-6.9
	c1.6-0.3,2.2,2.3,0.4,2.6c-2.5,0.4-3.7,1.9-3.4,3.9c0.6,3.8,7.5,10,24.4,9.7c0,0,0,0,0,0c4.9-0.2,10.3-2.5,10.3-2.5s-7.8-1.6-11-3.9
	c-0.1-0.1,6.8-5,7.5-7c-6.9,0.6-13.5,0.5-19.3-0.5c-3.3-1.7-6.1-4.1-8-6.7c-0.3-9.7-5.4-10.8-8.5-10.8c-3.1,0-6.8,3.9-10.1,5.7
	c2.1,2.3,6.2,4,6.2,9.7c-0.2,14.2,6.7,18,10.8,18.8c0.2,6.1-1.3,11-3.7,15.4c3.9,1.2,7.5-2.5,8.8-4c2,2.5,4.1,4,8.8,5.1
	c-1.9-2.3-3.6-9.1-3.4-14.2c3.6,1.9,11.7,10.1,15.3,15.4c0.2-1.7,0-6.3-0.5-10.4C126.7,271.3,129.6,269.7,133,265.7 M91.9,236.4
	c-0.1,0.1-0.7,0.9-1.7,1c-0.5,0-1.2-0.1-2-0.9l-0.4-0.4l0.3-0.5c0-0.1,0.4-0.8,1.3-1c0.7-0.2,1.6,0.1,2.4,0.7l0.6,0.5L91.9,236.4z"
	/>
<path class="st0" d="M181.1,265.7c-2.8,0.2-5.8,0.3-10.2-1.2c-19.4,0.9-27.9-6.1-28.9-11.8c-0.6-3.5,1.7-6.2,5.5-6.9
	c1.6-0.3,2.2,2.3,0.4,2.6c-2.5,0.4-3.7,1.9-3.4,3.9c0.6,3.8,7.5,10,24.4,9.7c0,0,0,0,0,0c4.9-0.2,10.3-2.5,10.3-2.5s-7.8-1.6-11-3.9
	c-0.1-0.1,6.8-5,7.5-7c-6.9,0.6-13.5,0.5-19.3-0.5c-3.3-1.7-6.1-4.1-8-6.7c-0.3-9.7-5.4-10.8-8.5-10.8c-3.1,0-6.8,3.9-10.1,5.7
	c2.1,2.3,6.2,4,6.2,9.7c-0.2,14.2,6.7,18,10.8,18.8c0.2,6.1-1.3,11-3.7,15.4c3.9,1.2,7.5-2.5,8.8-4c2,2.5,4.1,4,8.8,5.1
	c-2-2.3-3.6-9.1-3.4-14.2c3.6,1.9,11.7,10.1,15.3,15.4c0.2-1.7,0-6.3-0.5-10.4C174.8,271.3,177.7,269.7,181.1,265.7 M140,236.4
	c-0.1,0.1-0.7,0.9-1.7,1c-0.5,0-1.2-0.1-2-0.9l-0.4-0.4l0.3-0.5c0-0.1,0.4-0.8,1.3-1c0.7-0.2,1.6,0.1,2.4,0.7l0.7,0.5L140,236.4z"/>
</svg>
